<svg width="130" height="17" viewBox="0 0 130 17" fill="none" xmlns="http://www.w3.org/2000/svg">
<path d="M15.2071 11.0538L17 10.3639V5.70883L15.2071 5.01894C14.0579 2.44878 11.4882 0.657837 8.5 0.657837C5.51184 0.657837 2.94209 2.44878 1.79289 5.01894L0 5.70883V10.3633L1.79289 11.0531C2.21382 11.9945 2.82597 12.8308 3.57885 13.5137V14.0104H2.24412L1.3625 16.6578H15.6375L14.7559 14.0104H13.3789V13.5524C14.1513 12.8631 14.778 12.0123 15.2071 11.0538ZM6.54113 2.91061H10.4589V3.89952H6.54113V2.91061ZM12.9289 10.5444L11.5771 11.9014H5.39131L4.02881 10.5337V6.10225L5.38941 4.73639H11.598L12.9283 6.07184V10.5444H12.9289Z" fill="#CC6237"/>
<path d="M59.8408 0.83429C55.4882 0.83429 51.9462 4.37543 51.9462 8.7289C51.9462 13.0824 55.4873 16.6235 59.8408 16.6235C64.1942 16.6235 67.7354 13.0824 67.7354 8.7289C67.7345 4.37543 64.1933 0.83429 59.8408 0.83429ZM61.0821 8.68957C61.1032 9.37474 60.5635 9.94923 59.8783 9.97027C59.43 9.98673 59.1291 9.76536 58.9891 9.63363C58.8491 9.5019 58.6122 9.21465 58.5985 8.76641C58.5775 8.08123 59.1172 7.50675 59.8024 7.48571C59.8152 7.48571 59.828 7.48571 59.8417 7.48571C60.5086 7.48571 61.062 8.01903 61.0821 8.69048V8.68957Z" fill="#D8BCA9"/>
<path d="M20.7401 6.96154H23.2155V16.533H29.2522V6.96154H31.7276V0.92395H20.7401V6.96154Z" fill="#D8BCA9"/>
<path d="M69.3538 1.00537V16.5321H75.2724V14.461H81.4793L84.2831 11.6581V3.90616L81.3814 1.00537H69.3538ZM78.3635 8.5423H75.2724V6.92496H78.3635V8.5423Z" fill="#D8BCA9"/>
<path d="M33.5911 16.5312H39.5097V6.84634H44.0398L41.0265 9.85965V16.5312H50.2649V10.6125H48.6448L50.3271 8.92931V0.926758H33.5911V16.5312Z" fill="#D8BCA9"/>
<path d="M86.0842 1.00537V16.533H92.0038V6.92404H93.6084V16.533H99.527V1.00537H86.0842Z" fill="#D8BCA9"/>
<path d="M102.95 0H102.957V0.00640348H102.95V0ZM102.95 4.12203H104.53C105.002 4.11746 105.352 4.22083 105.579 4.43123C105.806 4.64163 105.945 4.88039 105.998 5.14568C106.051 5.41096 106.076 5.71559 106.076 6.05955V11.1101C106.076 11.454 106.05 11.7568 105.998 12.0203C105.945 12.2838 105.806 12.5207 105.579 12.7311C105.352 12.9424 105.005 13.0476 104.538 13.0476H102.951V4.12203H102.95ZM104.668 11.5739C104.704 11.5345 104.728 11.4733 104.74 11.3882C104.751 11.3031 104.757 11.176 104.757 11.0067V6.18304C104.757 6.01381 104.75 5.88299 104.736 5.79152C104.723 5.70004 104.697 5.63509 104.66 5.59575C104.624 5.55642 104.566 5.53721 104.488 5.53721H104.269V11.6315H104.496C104.573 11.6315 104.631 11.6123 104.668 11.5739Z" fill="#CC6237"/>
<path d="M107.656 4.12201H109.024V13.0476H107.656V4.12201Z" fill="#CC6237"/>
<path d="M110.95 12.6177C110.719 12.2765 110.604 11.7944 110.604 11.1714V5.96352C110.604 5.61956 110.63 5.31677 110.682 5.05331C110.735 4.78985 110.875 4.55292 111.101 4.34252C111.328 4.13212 111.675 4.02692 112.142 4.02692H112.266C112.852 4.02692 113.253 4.18152 113.468 4.49071C113.683 4.79991 113.795 5.1951 113.805 5.67628V7.3668H112.485V5.73116C112.485 5.63511 112.459 5.56284 112.407 5.51436C112.354 5.46588 112.293 5.44209 112.225 5.44209H112.184C112.11 5.44209 112.056 5.4613 112.019 5.50064C111.982 5.53997 111.958 5.60218 111.947 5.69C111.935 5.7769 111.929 5.90497 111.929 6.07513V10.9948C111.929 11.2601 111.945 11.4458 111.977 11.551C112.009 11.6562 112.076 11.712 112.176 11.7157H112.217C112.313 11.7111 112.382 11.6828 112.423 11.6297C112.464 11.5767 112.485 11.498 112.485 11.3928V9.21467H112.163V8.06662H113.812V13.0412H112.925V12.3743H112.863C112.859 12.4613 112.85 12.5372 112.836 12.6012C112.808 12.775 112.719 12.9068 112.568 12.9964C112.417 13.0861 112.236 13.13 112.025 13.13H111.936C111.511 13.13 111.182 12.9589 110.95 12.6177Z" fill="#CC6237"/>
<path d="M115.461 4.12201H116.829V13.0476H115.461V4.12201Z" fill="#CC6237"/>
<path d="M119.247 5.53718H118.41V4.12201H121.419V5.53718H120.581V13.0467H119.248V5.53718H119.247Z" fill="#CC6237"/>
<path d="M123.26 4.12201H125.08L126.063 13.0476H124.716L124.53 11.2061H123.809L123.609 13.0476H122.276L123.26 4.12201ZM124.036 9.91444H124.304C124.336 9.91444 124.364 9.91718 124.387 9.92176L124.408 9.92908L124.428 9.91536L124.414 9.87419C124.414 9.84217 124.411 9.81198 124.407 9.78454L124.215 6.85722C124.21 6.76117 124.206 6.64865 124.201 6.52058C124.197 6.39251 124.194 6.28457 124.194 6.19766H124.139C124.139 6.28457 124.136 6.39251 124.132 6.52058C124.127 6.64865 124.122 6.76117 124.118 6.85722L123.939 9.78454L123.932 9.82571L123.926 9.87419L123.912 9.91536L123.932 9.92908L123.96 9.92176C123.983 9.91627 124.009 9.91444 124.036 9.91444Z" fill="#CC6237"/>
<path d="M127.505 4.12201H128.9V11.6324H130V13.0476H127.505V4.12201Z" fill="#CC6237"/>
<path d="M130 0.962341H102.95V2.32903H130V0.962341Z" fill="#CC6237"/>
<path d="M130 15.1297H102.95V16.4964H130V15.1297Z" fill="#CC6237"/>
</svg>
